<?xml version="1.0" standalone="no"?><svg xmlns="http://www.w3.org/2000/svg" viewBox="0 0 1440 320"><path fill="#e7008a" fill-opacity="1" d="M0,256L21.8,266.7C43.6,277,87,299,131,293.3C174.5,288,218,256,262,218.7C305.5,181,349,139,393,144C436.4,149,480,203,524,213.3C567.3,224,611,192,655,197.3C698.2,203,742,245,785,224C829.1,203,873,117,916,80C960,43,1004,53,1047,64C1090.9,75,1135,85,1178,122.7C1221.8,160,1265,224,1309,208C1352.7,192,1396,96,1418,48L1440,0L1440,320L1418.2,320C1396.4,320,1353,320,1309,320C1265.5,320,1222,320,1178,320C1134.5,320,1091,320,1047,320C1003.6,320,960,320,916,320C872.7,320,829,320,785,320C741.8,320,698,320,655,320C610.9,320,567,320,524,320C480,320,436,320,393,320C349.1,320,305,320,262,320C218.2,320,175,320,131,320C87.3,320,44,320,22,320L0,320Z"></path></svg>